<?xml version="1.0" encoding="utf-8"?>
<svg xmlns="http://www.w3.org/2000/svg" width="400px" height="150px" viewBox="6.8 72.6 341.829 147.076" fill="none">
  <path d="M 154.961 177.897 L 153.924 175.452 L 148.396 175.452 L 147.358 177.897 L 145.724 177.897 L 150.385 167.949 L 152.048 167.949 L 156.709 177.897 L 154.961 177.897 Z M 148.978 174.145 L 153.341 174.145 L 151.153 168.958 L 148.978 174.145 Z" style="fill: rgb(15, 100, 102);"/>
  <path d="M 165.847 172.653 L 165.847 176.916 C 164.682 177.698 163.303 178.11 161.896 178.11 C 158.329 178.11 156.624 175.964 156.624 173.008 C 156.624 170.208 158.344 167.778 161.712 167.778 C 163.019 167.764 164.284 168.205 165.335 169 L 164.696 170.223 C 163.801 169.498 162.706 169.1 161.584 169.086 C 159.154 169.086 158.173 170.962 158.173 172.937 C 158.173 175.012 159.367 176.774 162.038 176.774 C 162.905 176.774 163.772 176.532 164.54 176.078 L 164.54 172.653 L 165.847 172.653 Z" style="fill: rgb(15, 100, 102);"/>
  <path d="M 174.828 169.285 L 169.499 169.285 L 169.499 172.312 L 173.976 172.312 L 173.976 173.548 L 169.499 173.548 L 169.499 176.632 L 174.956 176.632 L 174.956 177.897 L 168.05 177.897 L 168.05 167.949 L 174.828 167.949 L 174.828 169.285 Z" style="fill: rgb(15, 100, 102);"/>
  <path d="M 185.046 167.949 L 185.046 177.897 L 183.639 177.897 L 177.855 170.393 L 177.855 177.897 L 176.392 177.897 L 176.392 167.949 L 177.813 167.949 L 183.596 175.452 L 183.596 167.949 L 185.046 167.949 Z" style="fill: rgb(15, 100, 102);"/>
  <path d="M 194.326 169.256 L 190.773 169.256 L 190.773 177.897 L 189.309 177.897 L 189.309 169.256 L 185.757 169.256 L 185.757 167.949 L 194.326 167.949 L 194.326 169.256 Z" style="fill: rgb(15, 100, 102);"/>
  <path d="M 206.448 168.645 L 205.95 169.881 C 204.927 169.327 203.961 169.071 202.81 169.071 C 201.389 169.071 200.621 169.668 200.607 170.62 C 200.593 171.402 201.161 171.729 203.066 172.056 C 205.751 172.539 206.817 173.363 206.817 174.87 C 206.817 176.603 205.425 177.783 202.923 177.783 C 201.517 177.811 200.124 177.428 198.873 176.689 L 199.456 175.452 C 200.593 176.205 201.73 176.561 203.023 176.561 C 204.515 176.561 205.339 175.935 205.339 174.983 C 205.339 174.187 204.671 173.775 202.796 173.42 C 200.195 172.908 199.172 172.184 199.172 170.635 C 199.172 168.958 200.508 167.792 202.81 167.792 C 204.245 167.821 205.41 168.105 206.448 168.645 Z" style="fill: rgb(15, 100, 102);"/>
  <path d="M 211.535 173.647 L 209.816 175.537 L 209.816 177.897 L 208.366 177.897 L 208.366 167.949 L 209.816 167.949 L 209.816 173.647 L 214.761 167.949 L 216.566 167.949 L 212.53 172.709 L 216.893 177.897 L 215.017 177.897 L 211.535 173.647 Z" style="fill: rgb(15, 100, 102);"/>
  <path d="M 219.863 167.949 L 219.863 177.897 L 218.399 177.897 L 218.399 167.949 L 219.863 167.949 Z" style="fill: rgb(15, 100, 102);"/>
  <path d="M 223.842 176.575 L 229.185 176.575 L 229.185 177.897 L 222.393 177.897 L 222.393 167.949 L 223.842 167.949 L 223.842 176.575 Z" style="fill: rgb(15, 100, 102);"/>
  <path d="M 232.283 176.575 L 237.627 176.575 L 237.627 177.897 L 230.834 177.897 L 230.834 167.949 L 232.283 167.949 L 232.283 176.575 Z" style="fill: rgb(15, 100, 102);"/>
  <path d="M 245.983 168.645 L 245.485 169.881 C 244.462 169.327 243.496 169.071 242.345 169.071 C 240.924 169.071 240.156 169.668 240.142 170.62 C 240.128 171.402 240.696 171.729 242.601 172.056 C 245.287 172.539 246.352 173.363 246.352 174.87 C 246.352 176.603 244.96 177.783 242.459 177.783 C 241.052 177.811 239.659 177.428 238.408 176.689 L 238.991 175.452 C 240.128 176.205 241.265 176.561 242.558 176.561 C 244.05 176.561 244.874 175.935 244.874 174.983 C 244.874 174.187 244.206 173.775 242.331 173.42 C 239.73 172.908 238.707 172.184 238.707 170.635 C 238.707 168.958 240.043 167.792 242.345 167.792 C 243.78 167.821 244.945 168.105 245.983 168.645 Z" style="fill: rgb(15, 100, 102);"/>
  <path d="M 260.578 169.1 L 259.867 170.237 C 258.957 169.484 257.849 169.071 256.712 169.071 C 254.367 169.071 253.131 170.89 253.131 172.866 C 253.131 174.941 254.41 176.66 256.812 176.66 C 258.105 176.66 259.156 176.063 259.995 175.282 L 260.805 176.39 C 259.64 177.513 258.29 178.053 256.741 178.053 C 253.401 178.053 251.625 175.722 251.625 172.937 C 251.625 170.152 253.387 167.75 256.627 167.75 C 258.062 167.778 259.37 168.233 260.578 169.1 Z" style="fill: rgb(15, 100, 102);"/>
  <path d="M 271.307 172.923 C 271.307 175.736 269.374 178.053 266.134 178.053 C 262.894 178.053 260.975 175.736 260.975 172.923 C 260.975 170.038 262.894 167.75 266.134 167.75 C 269.374 167.75 271.307 170.038 271.307 172.923 Z M 262.51 172.923 C 262.51 174.997 263.96 176.731 266.134 176.731 C 268.394 176.731 269.786 174.997 269.786 172.923 C 269.786 170.805 268.365 169.1 266.134 169.1 C 263.917 169.1 262.51 170.805 262.51 172.923 Z" style="fill: rgb(15, 100, 102);"/>
  <path d="M 274.632 176.575 L 279.976 176.575 L 279.976 177.897 L 273.183 177.897 L 273.183 167.949 L 274.632 167.949 L 274.632 176.575 Z" style="fill: rgb(15, 100, 102);"/>
  <path d="M 283.074 176.575 L 288.417 176.575 L 288.417 177.897 L 281.624 177.897 L 281.624 167.949 L 283.074 167.949 L 283.074 176.575 Z" style="fill: rgb(15, 100, 102);"/>
  <path d="M 297.029 169.285 L 291.7 169.285 L 291.7 172.312 L 296.176 172.312 L 296.176 173.548 L 291.7 173.548 L 291.7 176.632 L 297.157 176.632 L 297.157 177.897 L 290.25 177.897 L 290.25 167.949 L 297.029 167.949 L 297.029 169.285 Z" style="fill: rgb(15, 100, 102);"/>
  <path d="M 307.545 169.1 L 306.834 170.237 C 305.925 169.484 304.816 169.071 303.68 169.071 C 301.335 169.071 300.098 170.89 300.098 172.866 C 300.098 174.941 301.377 176.66 303.779 176.66 C 305.072 176.66 306.124 176.063 306.962 175.282 L 307.772 176.39 C 306.607 177.513 305.257 178.053 303.708 178.053 C 300.368 178.053 298.592 175.722 298.592 172.937 C 298.592 170.152 300.354 167.75 303.594 167.75 C 305.03 167.778 306.337 168.233 307.545 169.1 Z" style="fill: rgb(15, 100, 102);"/>
  <path d="M 316.541 169.256 L 312.988 169.256 L 312.988 177.897 L 311.524 177.897 L 311.524 169.256 L 307.971 169.256 L 307.971 167.949 L 316.541 167.949 L 316.541 169.256 Z" style="fill: rgb(15, 100, 102);"/>
  <path d="M 319.738 167.949 L 319.738 177.897 L 318.274 177.897 L 318.274 167.949 L 319.738 167.949 Z" style="fill: rgb(15, 100, 102);"/>
  <path d="M 332.698 172.923 C 332.698 175.736 330.766 178.053 327.526 178.053 C 324.286 178.053 322.367 175.736 322.367 172.923 C 322.367 170.038 324.286 167.75 327.526 167.75 C 330.766 167.75 332.698 170.038 332.698 172.923 Z M 323.902 172.923 C 323.902 174.997 325.351 176.731 327.526 176.731 C 329.785 176.731 331.178 174.997 331.178 172.923 C 331.178 170.805 329.757 169.1 327.526 169.1 C 325.309 169.1 323.902 170.805 323.902 172.923 Z" style="fill: rgb(15, 100, 102);"/>
  <path d="M 343.087 167.949 L 343.087 177.897 L 341.68 177.897 L 335.896 170.393 L 335.896 177.897 L 334.432 177.897 L 334.432 167.949 L 335.853 167.949 L 341.637 175.452 L 341.637 167.949 L 343.087 167.949 Z" style="fill: rgb(15, 100, 102);"/>
  <path d="M 163.488 137.836 L 161.669 142.625 C 159.381 141.488 157.164 140.891 154.606 140.891 C 152.275 140.891 151.38 141.673 151.38 142.81 C 151.38 143.776 152.133 144.259 154.492 144.6 C 160.006 145.424 163.602 146.718 163.602 150.81 C 163.602 154.747 160.418 157.262 154.933 157.262 C 151.565 157.262 148.68 156.409 146.392 155.045 L 147.87 150.327 C 149.916 151.876 152.346 152.771 155.047 152.771 C 157.747 152.771 158.812 151.876 158.812 150.626 C 158.812 149.418 157.491 148.963 154.535 148.451 C 149.433 147.457 146.804 146.092 146.804 142.554 C 146.804 138.873 149.575 136.4 154.833 136.4 C 157.86 136.4 160.603 136.983 163.488 137.836 Z" style="fill: rgb(15, 100, 102);"/>
  <path d="M 174.658 148.636 L 171.702 152.175 L 171.702 156.822 L 166.216 156.822 L 166.216 128.826 L 171.702 128.826 L 171.702 144.799 L 179.887 136.727 L 186.751 136.727 L 179.376 145.211 L 188.073 156.822 L 181.365 156.822 L 174.658 148.636 Z" style="fill: rgb(15, 100, 102);"/>
  <path d="M 196.486 130.73 C 196.486 133.615 194.482 134.61 192.706 134.61 C 190.773 134.61 189.068 133.359 189.068 130.886 C 189.068 128.599 190.773 127.234 192.706 127.234 C 194.781 127.234 196.486 128.599 196.486 130.73 Z M 195.761 136.727 L 195.761 156.822 L 190.176 156.822 L 190.176 136.727 L 195.761 136.727 Z" style="fill: rgb(15, 100, 102);"/>
  <path d="M 206.448 128.826 L 206.448 156.822 L 200.635 156.822 L 200.635 128.826 L 206.448 128.826 Z" style="fill: rgb(15, 100, 102);"/>
  <path d="M 217.063 128.826 L 217.063 156.822 L 211.251 156.822 L 211.251 128.826 L 217.063 128.826 Z" style="fill: rgb(15, 100, 102);"/>
  <path d="M 227.864 153.255 C 227.864 156.026 226.016 157.234 224.24 157.234 C 222.194 157.234 220.645 155.756 220.645 153.468 C 220.645 151.251 222.194 149.816 224.24 149.816 C 226.173 149.816 227.864 151.18 227.864 153.255 Z" style="fill: rgb(15, 100, 102);"/>
  <path d="M 251.554 129.195 L 251.554 156.822 L 246.068 156.822 L 246.068 154.05 C 244.363 156.182 241.89 157.319 238.963 157.319 C 232.696 157.319 229.015 152.686 229.015 146.76 C 229.015 141.104 232.411 136.429 238.82 136.429 C 241.521 136.429 243.951 137.523 245.77 139.527 L 245.77 129.195 L 251.554 129.195 Z M 246.281 146.831 C 246.281 143.108 244.178 140.408 240.568 140.408 C 236.959 140.408 234.984 143.293 234.984 146.76 C 234.984 150.441 237.129 152.999 240.469 152.999 C 243.993 152.999 246.281 150.37 246.281 146.831 Z" style="fill: rgb(15, 100, 102);"/>
  <path d="M 275.258 148.082 L 260.99 148.082 C 261.473 151.208 263.32 153.056 266.731 153.056 C 269.36 153.056 271.207 152.203 272.842 150.768 L 275.059 154.605 C 272.728 156.495 269.999 157.489 266.461 157.489 C 258.858 157.489 255.589 152.473 255.589 146.945 C 255.589 141.133 259.27 136.557 265.907 136.557 C 271.875 136.557 275.442 140.351 275.442 146.618 C 275.442 147.314 275.371 147.897 275.258 148.082 Z M 260.99 144.657 L 270.44 144.657 C 270.028 141.772 268.365 140.18 265.665 140.18 C 262.965 140.18 261.43 141.914 260.99 144.657 Z" style="fill: rgb(15, 100, 102);"/>
  <path d="M 299.402 136.727 L 290.406 156.822 L 284.921 156.822 L 276.181 136.727 L 282.221 136.727 L 287.777 150.881 L 293.675 136.727 L 299.402 136.727 Z" style="fill: rgb(15, 100, 102);"/>
  <path d="M 305.143 149.816 C 303.068 149.816 301.519 151.18 301.519 153.397 C 301.519 155.685 303.068 157.049 305.001 157.049 C 306.891 157.049 308.597 155.685 308.597 153.255 C 308.597 151.18 307.09 149.816 305.143 149.816 Z" style="fill: rgb(15, 100, 102);"/>
  <path d="M 332.67 146.646 C 332.67 152.572 328.989 157.205 322.722 157.205 C 319.795 157.205 317.322 155.955 315.617 153.809 L 315.617 156.822 L 309.947 156.822 L 309.947 129.195 L 315.759 129.195 L 315.759 139.342 C 317.578 137.338 320.008 136.244 322.708 136.244 C 329.131 136.244 332.67 140.919 332.67 146.646 Z M 326.929 146.575 C 326.929 143.108 324.968 140.408 321.358 140.408 C 317.748 140.408 315.645 143.108 315.645 146.831 C 315.645 150.37 317.933 152.999 321.386 152.999 C 324.783 152.999 326.929 150.256 326.929 146.575 Z" style="fill: rgb(15, 100, 102);"/>
  <path d="M 348.629 136.429 L 348.629 141.701 C 343.357 141.104 341.14 143.08 341.14 148.934 L 341.14 156.822 L 335.654 156.822 L 335.654 136.727 L 340.927 136.727 L 340.927 140.067 C 342.433 137.438 344.721 136.216 348.629 136.429 Z" style="fill: rgb(15, 100, 102);"/>
  <path d="M 97.407 90.342 L 115.099 100.148 C 116.819 101.129 117.544 102.55 117.458 104.298 L 117.174 119.901 L 97.407 108.575 L 97.407 90.342 Z" fill="url(#paint0_linear_65_1188)"/>
  <path d="M 43.05 90.911 L 25.925 100.759 C 24.462 101.654 23.808 102.99 23.879 104.61 L 24.12 119.376 L 43.05 107.282 L 43.05 90.911 Z" fill="url(#paint1_linear_65_1188)"/>
  <path d="M 48.62 86.548 L 68.501 73.431 C 70.363 72.323 72.211 72.323 73.916 73.431 L 92.461 85.155 C 94.053 86.108 94.351 87.358 94.351 89.092 L 94.351 106.799 C 94.351 108.049 93.541 109.414 92.291 110.209 L 71.941 121.536 C 70.548 122.346 69.155 122.26 67.62 121.308 L 48.862 108.248 C 47.625 107.524 47.057 106.486 47.057 105.037 L 47.057 89.49 C 47.057 88.126 47.54 87.159 48.62 86.548 Z" fill="url(#paint2_linear_65_1188)"/>
  <path d="M 47.142 87.358 L 70.363 98.77 L 93.868 86.264 L 94.181 87.813 L 94.181 106.444 C 94.181 107.893 93.456 109.058 92.063 109.939 L 72.012 121.862 C 70.846 122.587 69.596 122.417 68.118 121.536 L 48.862 108.859 C 47.697 108.135 47.057 107.04 47.057 105.591 L 47.057 89.248 C 47.057 88.452 47.057 87.813 47.142 87.358 Z" fill="url(#paint3_linear_65_1188)"/>
  <path d="M 23.396 130.403 L 13.363 134.88 C 12.354 135.761 11.629 136.983 11.629 138.433 L 11.629 155.472 C 11.629 157.205 12.197 158.513 13.59 159.465 L 19.161 163.003 L 19.644 131.199 L 23.396 130.403 Z" fill="url(#paint4_linear_65_1188)"/>
  <path d="M 123.839 132.009 L 129.566 135.164 C 130.959 136.045 131.442 137.409 131.442 139.228 L 131.442 155.813 C 131.442 157.561 130.717 158.925 129.168 159.877 L 124.521 162.563 L 123.839 132.009 Z" fill="url(#paint5_linear_65_1188)"/>
  <path d="M 22.088 128.954 L 22.245 166.471 C 22.245 167.991 23.154 169.299 24.788 170.322 L 43.49 181.165 C 45.11 182.117 46.73 182.202 48.421 181.25 L 68.43 169.1 C 70.122 168.077 71.898 167.991 73.674 168.944 L 94.096 181.165 C 95.559 182.046 97.336 182.046 99.027 181.094 L 110.168 174.472 L 103.162 167.11 C 99.695 168.631 95.716 169.171 91.58 168.318 C 80.112 165.775 73.106 154.093 74.967 143.52 C 77.128 130.73 88.425 124.548 98.544 125.856 C 109.273 127.291 117.061 136.727 116.179 148.409 C 115.881 152.331 114.574 155.955 112.47 159.024 L 119.832 165.86 L 120.073 128.797 C 120.073 126.794 119.192 125.188 117.331 124.037 L 98.33 112.782 C 96.71 111.758 95.005 111.758 93.143 112.782 L 72.708 125.074 C 71.003 126.097 69.312 126.097 67.62 125.074 L 47.54 112.782 C 45.835 111.758 44.059 111.758 42.197 112.782 L 24.788 123.483 C 23.012 124.634 22.088 126.367 22.088 128.954 Z M 45.593 137.836 C 39.241 139.271 35.404 146.433 38.857 151.535 C 42.993 157.802 50.084 155.813 52.784 152.018 C 57.19 145.822 53.281 137.992 45.593 137.836 Z" fill="url(#paint6_linear_65_1188)"/>
  <path d="M 48.421 184.306 L 68.914 171.502 C 70.448 170.549 71.983 170.464 73.589 171.416 L 92.291 182.956 C 93.612 183.751 94.024 184.789 94.024 186.153 L 94.024 204.784 C 94.024 206.517 93.3 207.967 91.609 208.919 L 72.665 219.165 C 71.273 219.961 69.88 219.805 68.345 218.853 L 49.558 207.526 C 48.023 206.574 47.213 205.21 47.213 203.277 L 47.213 187.404 C 47.213 186.039 47.54 184.945 48.421 184.306 Z" fill="url(#paint7_linear_65_1188)"/>
  <path d="M 47.299 184.306 L 70.519 197.366 L 93.74 184.306 L 94.053 186.309 L 94.053 204.542 C 94.053 206.29 93.172 207.654 91.395 208.749 L 72.253 219.691 C 71.088 220.331 69.837 220.174 68.445 219.222 L 49.302 207.484 C 47.981 206.688 47.171 205.324 47.171 203.505 L 47.171 186.636 C 47.171 185.556 47.171 184.746 47.299 184.306 Z" fill="url(#paint8_linear_65_1188)"/>
  <path d="M 94.664 128.314 C 83.679 128.314 74.769 136.983 74.769 148.082 C 74.769 159.181 83.679 167.835 94.024 167.11 C 98.43 166.783 102.338 164.922 105.507 162.009 L 120.315 177.982 C 122.603 180.526 125.147 179.971 126.383 178.351 C 127.619 176.731 127.463 174.358 125.53 172.212 L 110.936 157.319 C 113.565 153.624 115.028 149.702 114.787 145.055 C 114.062 135.363 106.033 128.314 94.664 128.314 Z M 94.024 132.592 C 103.006 132.592 108.335 139.427 108.335 146.646 C 108.335 154.463 101.826 161.142 94.024 161.142 C 85.995 161.142 80.353 154.463 80.353 146.646 C 80.353 139.186 86.322 132.592 94.024 132.592 Z" fill="url(#paint9_linear_65_1188)"/>
  <path d="M 94.024 136.884 L 94.024 139.584 C 99.837 139.186 103.66 142.582 103.972 147.641 L 106.473 147.329 C 106.232 141.246 101.67 136.599 94.024 136.884 Z" fill="url(#paint10_linear_65_1188)"/>
  <defs>
    <linearGradient id="paint0_linear_65_1188" x1="67.1074" y1="85.2852" x2="81.7917" y2="104.861" gradientUnits="userSpaceOnUse" gradientTransform="matrix(1.421101, 0, 0, 1.421101, 2.036418, -30.863293)">
      <stop stop-color="#C7DB5C"/>
      <stop offset="1" stop-color="#89CA71"/>
    </linearGradient>
    <linearGradient id="paint1_linear_65_1188" x1="15.3672" y1="85.6895" x2="26.1073" y2="106.132" gradientUnits="userSpaceOnUse" gradientTransform="matrix(1.421101, 0, 0, 1.421101, 2.036418, -30.863293)">
      <stop stop-color="#67B67A"/>
      <stop offset="1" stop-color="#34A688"/>
    </linearGradient>
    <linearGradient id="paint2_linear_65_1188" x1="31.6777" y1="72.7705" x2="50.5047" y2="100.614" gradientUnits="userSpaceOnUse" gradientTransform="matrix(1.421101, 0, 0, 1.421101, 2.036418, -30.863293)">
      <stop stop-color="#DBE665"/>
      <stop offset="1" stop-color="#D3E058"/>
    </linearGradient>
    <linearGradient id="paint3_linear_65_1188" x1="31.6777" y1="83.1855" x2="47.0566" y2="109.61" gradientUnits="userSpaceOnUse" gradientTransform="matrix(1.421101, 0, 0, 1.421101, 2.036418, -30.863293)">
      <stop stop-color="#67B67A"/>
      <stop offset="1" stop-color="#25A689"/>
    </linearGradient>
    <linearGradient id="paint4_linear_65_1188" x1="6.74609" y1="113.477" x2="15.6279" y2="134.893" gradientUnits="userSpaceOnUse" gradientTransform="matrix(1.421101, 0, 0, 1.421101, 2.036418, -30.863293)">
      <stop stop-color="#67B67A"/>
      <stop offset="1" stop-color="#34A688"/>
    </linearGradient>
    <linearGradient id="paint5_linear_65_1188" x1="85.707" y1="114.609" x2="93.181" y2="134.711" gradientUnits="userSpaceOnUse" gradientTransform="matrix(1.421101, 0, 0, 1.421101, 2.036418, -30.863293)">
      <stop stop-color="#C7DB5C"/>
      <stop offset="1" stop-color="#89CA71"/>
    </linearGradient>
    <linearGradient id="paint6_linear_65_1188" x1="14.1094" y1="100.41" x2="44.2121" y2="153.967" gradientUnits="userSpaceOnUse" gradientTransform="matrix(1.421101, 0, 0, 1.421101, 2.036418, -30.863293)">
      <stop stop-color="#4AB677"/>
      <stop offset="1" stop-color="#53B975"/>
    </linearGradient>
    <linearGradient id="paint7_linear_65_1188" x1="31.7617" y1="141.698" x2="49.102" y2="174.687" gradientUnits="userSpaceOnUse" gradientTransform="matrix(1.421101, 0, 0, 1.421101, 2.036418, -30.863293)">
      <stop stop-color="#259279"/>
      <stop offset="1" stop-color="#34A688"/>
    </linearGradient>
    <linearGradient id="paint8_linear_65_1188" x1="31.7617" y1="151.406" x2="47.0236" y2="177.058" gradientUnits="userSpaceOnUse" gradientTransform="matrix(1.421101, 0, 0, 1.421101, 2.036418, -30.863293)">
      <stop stop-color="#259279"/>
      <stop offset="1" stop-color="#72C474"/>
    </linearGradient>
    <linearGradient id="paint9_linear_65_1188" x1="51.1777" y1="112.008" x2="69.9108" y2="147.916" gradientUnits="userSpaceOnUse" gradientTransform="matrix(1.421101, 0, 0, 1.421101, 2.036418, -30.863293)">
      <stop stop-color="#4AB677"/>
      <stop offset="1" stop-color="#34A688"/>
    </linearGradient>
    <linearGradient id="paint10_linear_65_1188" x1="64.7266" y1="117.992" x2="71.9712" y2="127.241" gradientUnits="userSpaceOnUse" gradientTransform="matrix(1.421101, 0, 0, 1.421101, 2.036418, -30.863293)">
      <stop stop-color="#4AB677"/>
      <stop offset="1" stop-color="#34A688"/>
    </linearGradient>
  </defs>
</svg>